<mxfile host="65bd71144e">
    <diagram id="C5RBs43oDa-KdzZeNtuy" name="Page-1">
        <mxGraphModel dx="2170" dy="1948" grid="1" gridSize="10" guides="1" tooltips="1" connect="1" arrows="1" fold="1" page="1" pageScale="1" pageWidth="827" pageHeight="1169" math="0" shadow="0">
            <root>
                <mxCell id="WIyWlLk6GJQsqaUBKTNV-0"/>
                <mxCell id="WIyWlLk6GJQsqaUBKTNV-1" parent="WIyWlLk6GJQsqaUBKTNV-0"/>
                <mxCell id="VzqX0gNSxUYhQbhme7EZ-2" style="edgeStyle=orthogonalEdgeStyle;rounded=0;orthogonalLoop=1;jettySize=auto;html=1;exitX=0.25;exitY=1;exitDx=0;exitDy=0;" parent="WIyWlLk6GJQsqaUBKTNV-1" source="8ujiRsxlkH-QBAE6qNTh-2" edge="1">
                    <mxGeometry relative="1" as="geometry">
                        <mxPoint x="-105" y="-160" as="targetPoint"/>
                    </mxGeometry>
                </mxCell>
                <mxCell id="VzqX0gNSxUYhQbhme7EZ-3" style="edgeStyle=orthogonalEdgeStyle;rounded=0;orthogonalLoop=1;jettySize=auto;html=1;exitX=0.75;exitY=1;exitDx=0;exitDy=0;" parent="WIyWlLk6GJQsqaUBKTNV-1" source="8ujiRsxlkH-QBAE6qNTh-2" target="VzqX0gNSxUYhQbhme7EZ-1" edge="1">
                    <mxGeometry relative="1" as="geometry"/>
                </mxCell>
                <mxCell id="8ujiRsxlkH-QBAE6qNTh-2" value="Asn1DecodedDataRouter.java" style="rounded=0;whiteSpace=wrap;html=1;fillColor=#dae8fc;strokeColor=#6c8ebf;" parent="WIyWlLk6GJQsqaUBKTNV-1" vertex="1">
                    <mxGeometry x="-80" y="-300" width="170" height="60" as="geometry"/>
                </mxCell>
                <mxCell id="gxxZRGfVhdAJ79STQYsQ-20" style="edgeStyle=orthogonalEdgeStyle;rounded=0;orthogonalLoop=1;jettySize=auto;html=1;entryX=0;entryY=0.5;entryDx=0;entryDy=0;" parent="WIyWlLk6GJQsqaUBKTNV-1" source="gxxZRGfVhdAJ79STQYsQ-5" target="gxxZRGfVhdAJ79STQYsQ-19" edge="1">
                    <mxGeometry relative="1" as="geometry"/>
                </mxCell>
                <mxCell id="gxxZRGfVhdAJ79STQYsQ-5" value="ACM (ADM)" style="shape=process;whiteSpace=wrap;html=1;backgroundOutline=1;fillColor=#d5e8d4;strokeColor=#82b366;" parent="WIyWlLk6GJQsqaUBKTNV-1" vertex="1">
                    <mxGeometry x="-240" y="-430" width="120" height="60" as="geometry"/>
                </mxCell>
                <mxCell id="_VHhroGQ1N4wH_tI7Nl9-2" style="edgeStyle=orthogonalEdgeStyle;rounded=0;orthogonalLoop=1;jettySize=auto;html=1;exitX=0.5;exitY=1;exitDx=0;exitDy=0;" parent="WIyWlLk6GJQsqaUBKTNV-1" source="gxxZRGfVhdAJ79STQYsQ-60" target="gxxZRGfVhdAJ79STQYsQ-62" edge="1">
                    <mxGeometry relative="1" as="geometry">
                        <mxPoint x="-370" y="-584" as="sourcePoint"/>
                    </mxGeometry>
                </mxCell>
                <mxCell id="gxxZRGfVhdAJ79STQYsQ-18" style="edgeStyle=orthogonalEdgeStyle;rounded=0;orthogonalLoop=1;jettySize=auto;html=1;entryX=0;entryY=0.5;entryDx=0;entryDy=0;" parent="WIyWlLk6GJQsqaUBKTNV-1" source="gxxZRGfVhdAJ79STQYsQ-13" target="gxxZRGfVhdAJ79STQYsQ-5" edge="1">
                    <mxGeometry relative="1" as="geometry"/>
                </mxCell>
                <mxCell id="gxxZRGfVhdAJ79STQYsQ-13" value="Asn1DecoderInput" style="ellipse;whiteSpace=wrap;html=1;fillColor=#fff2cc;strokeColor=#d6b656;" parent="WIyWlLk6GJQsqaUBKTNV-1" vertex="1">
                    <mxGeometry x="-430" y="-440" width="120" height="80" as="geometry"/>
                </mxCell>
                <mxCell id="gxxZRGfVhdAJ79STQYsQ-19" value="Asn1DecoderOutput" style="ellipse;whiteSpace=wrap;html=1;fillColor=#fff2cc;strokeColor=#d6b656;" parent="WIyWlLk6GJQsqaUBKTNV-1" vertex="1">
                    <mxGeometry x="-55" y="-440" width="120" height="80" as="geometry"/>
                </mxCell>
                <mxCell id="gxxZRGfVhdAJ79STQYsQ-57" style="edgeStyle=orthogonalEdgeStyle;rounded=0;orthogonalLoop=1;jettySize=auto;html=1;entryX=0.5;entryY=0;entryDx=0;entryDy=0;" parent="WIyWlLk6GJQsqaUBKTNV-1" source="gxxZRGfVhdAJ79STQYsQ-58" target="gxxZRGfVhdAJ79STQYsQ-60" edge="1">
                    <mxGeometry relative="1" as="geometry"/>
                </mxCell>
                <mxCell id="gxxZRGfVhdAJ79STQYsQ-58" value="PsmReceiver.java" style="rounded=0;whiteSpace=wrap;html=1;fillColor=#dae8fc;strokeColor=#6c8ebf;" parent="WIyWlLk6GJQsqaUBKTNV-1" vertex="1">
                    <mxGeometry x="-430" y="-790" width="120" height="60" as="geometry"/>
                </mxCell>
                <mxCell id="gxxZRGfVhdAJ79STQYsQ-60" value="OdeRawEncodedPSMJson" style="ellipse;whiteSpace=wrap;html=1;fillColor=#fff2cc;strokeColor=#d6b656;" parent="WIyWlLk6GJQsqaUBKTNV-1" vertex="1">
                    <mxGeometry x="-455" y="-690" width="170" height="80" as="geometry"/>
                </mxCell>
                <mxCell id="gxxZRGfVhdAJ79STQYsQ-65" style="edgeStyle=orthogonalEdgeStyle;rounded=0;orthogonalLoop=1;jettySize=auto;html=1;entryX=0.5;entryY=0;entryDx=0;entryDy=0;" parent="WIyWlLk6GJQsqaUBKTNV-1" source="gxxZRGfVhdAJ79STQYsQ-62" target="gxxZRGfVhdAJ79STQYsQ-13" edge="1">
                    <mxGeometry relative="1" as="geometry"/>
                </mxCell>
                <mxCell id="gxxZRGfVhdAJ79STQYsQ-62" value="RawEncodedPSMJsonRouter.java" style="rounded=0;whiteSpace=wrap;html=1;fillColor=#dae8fc;strokeColor=#6c8ebf;" parent="WIyWlLk6GJQsqaUBKTNV-1" vertex="1">
                    <mxGeometry x="-470" y="-540" width="200" height="60" as="geometry"/>
                </mxCell>
                <mxCell id="gxxZRGfVhdAJ79STQYsQ-108" style="edgeStyle=orthogonalEdgeStyle;rounded=0;orthogonalLoop=1;jettySize=auto;html=1;entryX=0.5;entryY=0;entryDx=0;entryDy=0;exitX=0.5;exitY=1;exitDx=0;exitDy=0;" parent="WIyWlLk6GJQsqaUBKTNV-1" target="8ujiRsxlkH-QBAE6qNTh-2" edge="1">
                    <mxGeometry relative="1" as="geometry">
                        <mxPoint x="5" y="-360" as="sourcePoint"/>
                    </mxGeometry>
                </mxCell>
                <mxCell id="_VHhroGQ1N4wH_tI7Nl9-0" style="edgeStyle=orthogonalEdgeStyle;rounded=0;orthogonalLoop=1;jettySize=auto;html=1;" parent="WIyWlLk6GJQsqaUBKTNV-1" source="jXXAGItoZEFWX7bIlFFn-11" target="gxxZRGfVhdAJ79STQYsQ-58" edge="1">
                    <mxGeometry relative="1" as="geometry"/>
                </mxCell>
                <mxCell id="jXXAGItoZEFWX7bIlFFn-11" value="" style="ellipse;shape=cloud;whiteSpace=wrap;html=1;" parent="WIyWlLk6GJQsqaUBKTNV-1" vertex="1">
                    <mxGeometry x="-430" y="-920" width="120" height="80" as="geometry"/>
                </mxCell>
                <mxCell id="_VHhroGQ1N4wH_tI7Nl9-4" value="" style="group" parent="WIyWlLk6GJQsqaUBKTNV-1" vertex="1" connectable="0">
                    <mxGeometry x="180" y="-884" width="300" height="600" as="geometry"/>
                </mxCell>
                <mxCell id="_VHhroGQ1N4wH_tI7Nl9-5" value="&lt;font style=&quot;font-size: 24px&quot;&gt;Submodule&lt;/font&gt;" style="shape=process;whiteSpace=wrap;html=1;backgroundOutline=1;fillColor=#d5e8d4;strokeColor=#82b366;labelBackgroundColor=none;" parent="_VHhroGQ1N4wH_tI7Nl9-4" vertex="1">
                    <mxGeometry x="56.25" y="336.5853658536585" width="180" height="87.80487804878048" as="geometry"/>
                </mxCell>
                <mxCell id="_VHhroGQ1N4wH_tI7Nl9-6" value="Key" style="swimlane;labelBackgroundColor=none;fontSize=18;" parent="_VHhroGQ1N4wH_tI7Nl9-4" vertex="1">
                    <mxGeometry width="299.99999999999994" height="600" as="geometry"/>
                </mxCell>
                <mxCell id="_VHhroGQ1N4wH_tI7Nl9-8" value="" style="endArrow=classic;html=1;rounded=0;labelBackgroundColor=none;" parent="_VHhroGQ1N4wH_tI7Nl9-6" edge="1">
                    <mxGeometry width="50" height="50" relative="1" as="geometry">
                        <mxPoint x="108.75" y="541.4634146341463" as="sourcePoint"/>
                        <mxPoint x="183.74999999999997" y="468.29268292682923" as="targetPoint"/>
                    </mxGeometry>
                </mxCell>
                <mxCell id="_VHhroGQ1N4wH_tI7Nl9-9" value="&lt;font style=&quot;font-size: 24px&quot;&gt;Kafka Topic&lt;/font&gt;" style="ellipse;whiteSpace=wrap;html=1;fillColor=#fff2cc;strokeColor=#d6b656;labelBackgroundColor=none;" parent="_VHhroGQ1N4wH_tI7Nl9-6" vertex="1">
                    <mxGeometry x="56.25" y="175.60975609756096" width="180" height="117.07317073170731" as="geometry"/>
                </mxCell>
                <mxCell id="_VHhroGQ1N4wH_tI7Nl9-10" value="&lt;font style=&quot;font-size: 24px&quot;&gt;ODE Java Class&lt;/font&gt;" style="rounded=1;whiteSpace=wrap;html=1;fillColor=#dae8fc;strokeColor=#6c8ebf;labelBackgroundColor=none;" parent="_VHhroGQ1N4wH_tI7Nl9-6" vertex="1">
                    <mxGeometry x="48.13" y="58.54" width="196.25" height="87.8" as="geometry"/>
                </mxCell>
                <mxCell id="VzqX0gNSxUYhQbhme7EZ-0" value="OdePsmTxPojo" style="ellipse;whiteSpace=wrap;html=1;fillColor=#fff2cc;strokeColor=#d6b656;" parent="WIyWlLk6GJQsqaUBKTNV-1" vertex="1">
                    <mxGeometry x="-165" y="-160" width="120" height="80" as="geometry"/>
                </mxCell>
                <mxCell id="VzqX0gNSxUYhQbhme7EZ-1" value="OdePsmJson" style="ellipse;whiteSpace=wrap;html=1;fillColor=#fff2cc;strokeColor=#d6b656;" parent="WIyWlLk6GJQsqaUBKTNV-1" vertex="1">
                    <mxGeometry x="45" y="-160" width="120" height="80" as="geometry"/>
                </mxCell>
                <mxCell id="Ak_uoQ98FiocAXNaD4mG-0" value="message arrives encoded with Asn1.c" style="text;html=1;align=center;verticalAlign=middle;resizable=0;points=[];autosize=1;strokeColor=none;fillColor=none;" parent="WIyWlLk6GJQsqaUBKTNV-1" vertex="1">
                    <mxGeometry x="-285" y="-660" width="220" height="20" as="geometry"/>
                </mxCell>
                <mxCell id="Ak_uoQ98FiocAXNaD4mG-1" value="message is decoded from Asn1.c" style="text;html=1;strokeColor=none;fillColor=none;align=center;verticalAlign=middle;whiteSpace=wrap;rounded=0;" parent="WIyWlLk6GJQsqaUBKTNV-1" vertex="1">
                    <mxGeometry x="-235" y="-370" width="110" height="50" as="geometry"/>
                </mxCell>
                <mxCell id="Ak_uoQ98FiocAXNaD4mG-2" value="&lt;font style=&quot;font-size: 24px&quot;&gt;Data Flow&lt;/font&gt;" style="text;html=1;strokeColor=none;fillColor=none;align=center;verticalAlign=middle;whiteSpace=wrap;rounded=0;labelBackgroundColor=none;" parent="WIyWlLk6GJQsqaUBKTNV-1" vertex="1">
                    <mxGeometry x="270" y="-342.53999999999996" width="120" height="43.9" as="geometry"/>
                </mxCell>
                <mxCell id="Ak_uoQ98FiocAXNaD4mG-3" value="messages are in JSON format" style="text;html=1;strokeColor=none;fillColor=none;align=center;verticalAlign=middle;whiteSpace=wrap;rounded=0;" parent="WIyWlLk6GJQsqaUBKTNV-1" vertex="1">
                    <mxGeometry x="52.5" y="-80" width="105" height="50" as="geometry"/>
                </mxCell>
                <mxCell id="Ak_uoQ98FiocAXNaD4mG-4" value="messages are in POJO format" style="text;html=1;strokeColor=none;fillColor=none;align=center;verticalAlign=middle;whiteSpace=wrap;rounded=0;" parent="WIyWlLk6GJQsqaUBKTNV-1" vertex="1">
                    <mxGeometry x="-160" y="-80" width="105" height="50" as="geometry"/>
                </mxCell>
            </root>
        </mxGraphModel>
    </diagram>
</mxfile>